<svg width="122" height="21" viewBox="0 0 122 21" fill="none" xmlns="http://www.w3.org/2000/svg">
<g clip-path="url(#clip0_1_12693)">
<path d="M113.157 2.47158C113.689 2.31491 113.994 1.96798 114.085 1.43081C114.085 0.473979 113.598 -0.00164048 112.619 0.00395505C112.025 0.183012 111.68 0.580294 111.59 1.19021C111.669 2.14704 112.195 2.5779 113.157 2.47718V2.47158Z" fill="white"/>
<path d="M117.864 2.47147C118.526 2.23087 118.837 1.76084 118.792 1.0614C118.571 0.322793 118.067 -0.0353202 117.287 -0.00174709C116.795 0.138141 116.472 0.45149 116.314 0.938301C116.229 2.04621 116.744 2.55541 117.864 2.47147Z" fill="white"/>
<path d="M0 2.905C1.48787 2.8994 2.97575 2.905 4.45796 2.92738C4.51454 2.94417 4.56545 2.97774 4.60505 3.0281C4.61637 8.66279 4.63334 14.3031 4.64466 19.9378C4.93884 19.9825 5.23302 19.9937 5.53285 19.9602C5.55548 19.9378 5.57246 19.921 5.59509 19.8986C5.6064 14.2751 5.62337 8.6516 5.63469 3.0281C5.65732 3.00572 5.67429 2.98893 5.69692 2.96655C7.1565 2.95536 8.61609 2.93857 10.0757 2.92738C10.1153 2.91059 10.1492 2.89381 10.1775 2.86583C10.2001 2.55248 10.2058 2.23913 10.2001 1.92578H0V2.905Z" fill="white"/>
<path d="M58.1908 11.4837C58.1795 12.5524 58.1908 13.6156 58.2304 14.6676C59.8258 14.6564 61.4268 14.6676 63.0222 14.7067C63.0222 14.7291 63.0052 14.7459 62.9826 14.7459C62.6714 15.3782 62.2471 15.9321 61.704 16.4022C60.0408 17.6891 58.2248 17.9465 56.2504 17.1799C54.0497 16.0105 53.0653 14.1919 53.2973 11.7243C53.6933 9.74908 54.8474 8.39497 56.7482 7.66195C58.7452 7.11919 60.499 7.53326 62.0152 8.90976C62.8242 8.14876 63.6219 7.37099 64.4082 6.58202C64.4365 6.55404 64.4365 6.52606 64.4082 6.49809C63.0788 5.2279 61.506 4.44453 59.6787 4.14797C57.1612 3.7339 54.9152 4.32143 52.9465 5.90496C50.1461 8.3502 49.2014 11.383 50.1178 14.9921C51.1022 17.8346 53.037 19.7315 55.9222 20.6883C58.3153 21.2927 60.5839 21.0073 62.7337 19.8322C65.766 17.8682 67.1577 15.0872 66.9031 11.4781H58.1908V11.4837Z" fill="white"/>
<path d="M26.182 12.3158C27.0136 11.2638 27.8566 10.223 28.7221 9.19345C28.773 9.10392 28.79 9.0088 28.7844 8.90808C28.3827 8.90249 27.9867 8.90808 27.585 8.93046C26.6855 10.0384 25.7803 11.1519 24.8808 12.2598C24.8129 12.3829 24.7054 12.4333 24.5697 12.4053C24.5357 9.68026 24.5131 6.94965 24.5074 4.21344C24.185 4.17427 23.8625 4.15748 23.5344 4.17427C23.4778 9.43406 23.4778 14.6994 23.5344 19.9592C23.8625 19.9928 24.185 19.9872 24.5074 19.9369C24.5187 18.0568 24.5357 16.1767 24.547 14.3022C24.7507 14.0448 24.96 13.7874 25.1637 13.5244C25.2372 13.4405 25.3164 13.3733 25.4126 13.3174C25.4579 13.3174 25.4975 13.3341 25.5371 13.3565C26.81 15.5668 28.0942 17.7658 29.401 19.9536C29.7687 19.9872 30.1365 19.9816 30.4929 19.9313C30.5155 19.8138 30.4929 19.7018 30.408 19.6067C28.9824 17.1839 27.568 14.7554 26.1763 12.3158H26.182Z" fill="white"/>
<path d="M47.9915 8.9242C47.3013 8.91301 46.6168 8.89622 45.9266 8.88503C45.8926 8.85146 45.8587 8.81788 45.8248 8.78431C45.8134 7.3015 45.7965 5.81868 45.7852 4.33027C45.7682 4.29111 45.7512 4.25753 45.7229 4.22955C45.5362 4.15122 45.3439 4.11205 45.1459 4.12884C45.0101 4.168 44.9083 4.24634 44.8347 4.37504C44.8234 5.85785 44.8064 7.34067 44.7951 8.82908C44.7725 8.85146 44.7555 8.86824 44.7329 8.89063C44.0314 8.90182 43.3299 8.9186 42.6284 8.9298C42.6057 8.95218 42.5888 8.96896 42.5661 8.99135C42.5379 9.26553 42.5379 9.53411 42.5661 9.80829C42.5831 9.84746 42.6001 9.88103 42.6284 9.90901C43.3299 9.9202 44.0314 9.93699 44.7329 9.94818C44.7555 9.97056 44.7725 9.98735 44.7951 10.0097C44.8064 13.2495 44.8234 16.4893 44.8347 19.7292C44.9083 19.9362 45.061 20.0201 45.2873 19.9754C45.4853 20.0033 45.6494 19.9474 45.7852 19.8131C45.7965 16.5565 45.8134 13.3055 45.8248 10.0489C45.8587 10.0153 45.8926 9.98175 45.9266 9.94818C46.6281 9.94258 47.3296 9.9202 48.0311 9.88663C48.0424 9.85306 48.065 9.82508 48.0933 9.8027C48.1216 9.5453 48.1216 9.28791 48.0933 9.02492C48.0707 8.97456 48.0368 8.94099 47.9915 8.9242Z" fill="white"/>
<path d="M97.6687 4.08508C94.9928 4.40962 92.877 5.66302 91.3269 7.84527C89.7655 10.3353 89.4883 12.9652 90.5009 15.7294C91.5645 18.1019 93.3352 19.7302 95.8075 20.6087C97.9799 21.241 100.101 21.1067 102.166 20.2002C104.514 19.0251 106.047 17.1786 106.771 14.6662C107.252 12.5959 107.032 10.6095 106.109 8.70138C104.254 5.46717 101.437 3.9284 97.6631 4.08508H97.6687ZM101.018 16.9324C98.9925 17.9564 97.0691 17.8053 95.2361 16.4848C93.5955 15.0523 93.0297 13.2729 93.5219 11.1522C94.0876 9.42321 95.2361 8.25934 96.9729 7.66062C97.2784 7.58787 97.5839 7.53192 97.8837 7.47596C100.475 7.36965 102.285 8.48316 103.315 10.8277C104.039 13.424 103.275 15.4608 101.024 16.9324H101.018Z" fill="white"/>
<path d="M111.755 4.20971C110.618 4.17054 109.475 4.15376 108.326 4.17054C108.315 7.63417 108.326 11.0922 108.366 14.5446V4.20971H111.755Z" fill="white"/>
<path d="M118.605 4.16797C118.52 7.65398 118.497 11.1512 118.52 14.6652C118.548 11.1792 118.577 7.69315 118.605 4.20714V4.16797Z" fill="white"/>
<path d="M118.605 4.16797V4.20714C118.576 7.69315 118.548 11.1792 118.52 14.6652C118.424 15.2639 118.197 15.8067 117.841 16.2991C116.71 17.5692 115.341 17.905 113.734 17.3007C112.585 16.7131 111.929 15.7787 111.771 14.5029C111.748 11.0728 111.742 7.64279 111.748 4.20714H108.359V14.5421C108.371 15.3814 108.54 16.1816 108.874 16.9537C109.791 18.8506 111.256 20.1264 113.27 20.7755C115.188 21.2343 117.009 20.9881 118.724 20.0425C120.692 18.7891 121.762 16.9985 121.943 14.6708C121.982 11.1792 121.999 7.67636 121.982 4.17356H118.593L118.605 4.16797Z" fill="white"/>
<path d="M8.46407 4.94723C8.20949 5.03116 7.99451 5.18224 7.82479 5.39487C7.52495 6.00478 7.65507 6.50278 8.21515 6.88328C8.94494 7.11829 9.43147 6.88328 9.68039 6.16705C9.71434 5.33891 9.30701 4.93044 8.46407 4.94163V4.94723Z" fill="white"/>
<path d="M14.6589 9.41715C16.7012 8.62818 18.5625 8.92474 20.2314 10.318C20.435 10.5307 20.65 10.7321 20.8707 10.9112C21.1875 10.7769 21.4703 10.6034 21.7193 10.3796C21.6118 10.1837 21.4816 10.0103 21.3289 9.848C19.8976 8.40436 18.1608 7.74968 16.1072 7.88957C15.7678 7.95671 15.4227 8.02946 15.0776 8.11339C13.3691 8.6058 12.0792 9.62418 11.2136 11.1574C10.1614 13.3676 10.2745 15.5163 11.5417 17.609C13.0126 19.5786 14.987 20.4683 17.4706 20.2837C19.2583 20.0654 20.6783 19.2429 21.7249 17.8104C21.5099 17.637 21.2723 17.4803 21.0234 17.3404C20.9385 17.3124 20.8593 17.3124 20.7745 17.3404C19.3941 18.8848 17.6686 19.4723 15.615 19.0974C13.2503 18.4427 11.9208 16.9151 11.6323 14.5035C11.5361 12.1534 12.5487 10.4579 14.6702 9.41715H14.6589Z" fill="white"/>
<path d="M40.677 17.4246C40.4281 17.682 40.1679 17.9282 39.8907 18.1576C38.8554 18.9857 37.6673 19.3382 36.3379 19.2207C35.3026 19.092 34.3578 18.7339 33.5092 18.1408C33.4244 18.0065 33.4244 17.8666 33.5092 17.7323C36.0833 15.1864 38.6574 12.6404 41.2314 10.0944C41.2597 9.97133 41.2597 9.84823 41.2314 9.72513C39.8963 8.43816 38.2953 7.81146 36.4227 7.84503C34.8047 7.98492 33.4187 8.6284 32.2703 9.7643C30.3637 11.941 30.0017 14.347 31.1954 16.9937C32.1062 18.5605 33.4357 19.6124 35.1781 20.1608C37.888 20.6979 40.0943 19.9034 41.8085 17.7715C41.8311 17.7323 41.8368 17.6932 41.8311 17.6484C41.5596 17.5701 41.2824 17.4973 41.0052 17.4246C40.8977 17.3966 40.7845 17.3966 40.677 17.4246ZM31.5744 14.7051C31.4669 12.7859 32.1797 11.2247 33.7016 10.0273C34.5106 9.41737 35.4214 9.04247 36.4284 8.90258C37.4806 8.83544 38.4424 9.08724 39.3193 9.65798C39.489 9.78108 39.6417 9.92097 39.7719 10.0888C37.4297 12.4166 35.0876 14.7443 32.7511 17.072C32.0609 16.4342 31.6706 15.6452 31.5744 14.7051Z" fill="white"/>
<path d="M74.7505 7.92722C73.9811 8.01115 73.24 8.21259 72.5215 8.52035C70.1681 9.68421 68.9291 11.5699 68.8047 14.1774C68.8047 17.0144 70.0832 19.0511 72.646 20.2821C74.677 21.1047 76.6627 20.9928 78.5918 19.9576C80.0967 19.0008 81.0924 17.6746 81.5846 15.9736C82.0089 14.2166 81.7599 12.5715 80.8434 11.0327C79.4065 8.87286 77.3755 7.83769 74.7505 7.92722ZM78.4448 16.9136C77.0757 18.3853 75.4464 18.7602 73.5512 18.0383C71.8031 17.1039 71.0393 15.6546 71.26 13.6906C71.6899 11.9112 72.7931 10.8089 74.5865 10.3837C76.6061 10.2102 78.0883 10.9992 79.0275 12.7506C79.6102 14.2502 79.4178 15.6379 78.4504 16.9192L78.4448 16.9136Z" fill="white"/>
<path d="M9.12513 8.92674C8.82529 8.90436 8.5198 8.89877 8.21431 8.90436C8.20299 8.93794 8.18036 8.96591 8.15207 8.98829C8.12379 12.6254 8.12379 16.2569 8.15207 19.894C8.1747 19.9164 8.19168 19.9331 8.21431 19.9555C8.5198 19.9835 8.81964 19.9835 9.12513 19.9555C9.14776 19.9331 9.16473 19.9164 9.18736 19.894C9.21565 16.2569 9.21565 12.6254 9.18736 8.98829C9.16473 8.96591 9.14776 8.94913 9.12513 8.92674Z" fill="white"/>
<path d="M58.2303 14.6649C59.8143 14.6929 61.3984 14.7209 62.9768 14.7489C62.9994 14.7489 63.0107 14.7321 63.0164 14.7097C61.421 14.6705 59.82 14.6538 58.2246 14.6705L58.2303 14.6649Z" fill="white"/>
</g>
<defs>
<clipPath id="clip0_1_12693">
<rect width="122" height="21" fill="white"/>
</clipPath>
</defs>
</svg>
